<svg id="visual" viewBox="0 0 900 600" width="900" height="600" xmlns="http://www.w3.org/2000/svg" xmlns:xlink="http://www.w3.org/1999/xlink" version="1.1"><path d="M0 75L21.5 93.3C43 111.7 86 148.3 128.8 171.2C171.7 194 214.3 203 257.2 200.8C300 198.7 343 185.3 385.8 171.8C428.7 158.3 471.3 144.7 514.2 134.3C557 124 600 117 642.8 110.2C685.7 103.3 728.3 96.7 771.2 96.2C814 95.7 857 101.3 878.5 104.2L900 107L900 0L878.5 0C857 0 814 0 771.2 0C728.3 0 685.7 0 642.8 0C600 0 557 0 514.2 0C471.3 0 428.7 0 385.8 0C343 0 300 0 257.2 0C214.3 0 171.7 0 128.8 0C86 0 43 0 21.5 0L0 0Z" fill="#f1f4f8" stroke-linecap="round" stroke-linejoin="miter"></path></svg>